<?xml version="1.0" encoding="UTF-8"?>
<svg xmlns="http://www.w3.org/2000/svg" width="530" height="150">
    <style type="text/css">
        .st0 { fill:#FC0; }
        .st1 { opacity:5.000000e-002;fill:#FC0;enable-background:new; }
        .st2 { opacity:0.15;fill:#FC0;enable-background:new; }
        .st3 { opacity:0.3;fill:#FC0;enable-background:new; }
    </style>
    <g>
        <title>background</title>
        <rect fill="none" id="canvas_background" height="152" width="532" y="-1" x="-1" />
    </g>
    <g>
        <title>Layer 1</title>
        <g id="svg_1">
            <g id="svg_2">
                <path id="svg_3" d="m220.299988,67.000012c-10.3,0 -20.5,-6.4 -20.5,-23.6s10.2,-23.5 20.5,-23.5c6.3,0 10.8,1.8 15.1,6.4l-6.3,6.2c-2.9,-3.2 -5.2,-4.4 -8.8,-4.4c-3.5,0 -6.5,1.5 -8.5,4.1c-2,2.5 -2.7,5.8 -2.7,11.2c0,5.4 0.7,8.7 2.7,11.2c2,2.6 5,4.1 8.5,4.1c3.6,0 5.9,-1.2 8.8,-4.4l6.3,6.1c-4.3,4.7 -8.7,6.6 -15.1,6.6z" class="st0" />
                <path id="svg_4" d="m274.299988,61.600012c-3,3.1 -7.5,5.4 -13.8,5.4c-6.3,0 -10.7,-2.4 -13.7,-5.4c-4.4,-4.5 -5.4,-10.3 -5.4,-18.1c0,-7.7 1.1,-13.5 5.4,-18c3,-3.1 7.4,-5.4 13.7,-5.4c6.3,0 10.8,2.4 13.8,5.4c4.4,4.5 5.4,10.3 5.4,18s-1.1,13.5 -5.4,18.1zm-7,-30.8c-1.7,-1.7 -4.1,-2.6 -6.8,-2.6c-2.7,0 -5,0.9 -6.7,2.6c-2.8,2.8 -3.2,7.6 -3.2,12.6s0.4,9.8 3.2,12.6c1.7,1.7 4,2.7 6.7,2.7c2.7,0 5.1,-1 6.8,-2.7c2.8,-2.8 3.2,-7.6 3.2,-12.6s-0.4,-9.8 -3.2,-12.6z" class="st0" />
                <path id="svg_5" d="m316.499988,66.500012l0,-4.9c-3.4,4.2 -7.2,5.4 -12.2,5.4c-4.6,0 -8.7,-1.5 -11.2,-4.1c-4.6,-4.6 -5.2,-12.5 -5.2,-19.5s0.5,-14.8 5.2,-19.4c2.5,-2.5 6.5,-4.1 11.2,-4.1c4.9,0 8.7,1.2 12.1,5.2l0,-23.2l9.2,0l0,64.6l-9.1,0l0,0zm-9.7,-38.3c-8.3,0 -9.6,7.1 -9.6,15.2c0,8.2 1.3,15.3 9.6,15.3c8.3,0 9.5,-7.2 9.5,-15.3c0.1,-8.1 -1.1,-15.2 -9.5,-15.2z" class="st0" />
                <path id="svg_6" d="m342.999988,46.200012c0,7.9 4.2,12.9 11.7,12.9c5.2,0 7.9,-1.5 11.2,-4.7l5.9,5.5c-4.7,4.7 -9.2,7.2 -17.2,7.2c-11.5,0 -20.7,-6.1 -20.7,-23.6c0,-14.9 7.7,-23.5 19.5,-23.5c12.3,0 19.5,9.1 19.5,22.1l0,4.1l-29.9,0l0,0zm19.4,-12.7c-1.5,-3.4 -4.7,-5.8 -9.1,-5.8c-4.4,0 -7.7,2.4 -9.2,5.8c-0.9,2.1 -1.1,3.4 -1.2,6.3l20.7,0c0,-2.9 -0.3,-4.3 -1.2,-6.3z" class="st0" />
            </g>
            <g id="svg_7">
                <path id="svg_8" d="m413.699988,28.600012l0,38.1l-9.3,0l0,-38.1l-5.3,0l0,-7.1l5.3,0l0,-7.1c0,-6.6 4,-12.8 12.6,-12.8l5.8,0l0,7.9l-4.1,0c-3.4,0 -5.1,2 -5.1,5.4l0,6.6l9.2,0l0,7.1l-9.1,0l0,0z" class="st0" />
                <path id="svg_9" d="m459.599988,61.800012c-3,3.1 -7.5,5.4 -13.8,5.4c-6.3,0 -10.7,-2.4 -13.7,-5.4c-4.4,-4.5 -5.4,-10.3 -5.4,-18.1c0,-7.7 1.1,-13.5 5.4,-18c3,-3.1 7.4,-5.4 13.7,-5.4c6.3,0 10.8,2.4 13.8,5.4c4.4,4.5 5.4,10.3 5.4,18c0,7.7 -1.1,13.5 -5.4,18.1zm-7,-30.8c-1.7,-1.7 -4.1,-2.6 -6.8,-2.6c-2.7,0 -5,0.9 -6.7,2.6c-2.8,2.8 -3.2,7.6 -3.2,12.6s0.4,9.8 3.2,12.6c1.7,1.7 4,2.7 6.7,2.7c2.7,0 5.1,-1 6.8,-2.7c2.8,-2.8 3.2,-7.6 3.2,-12.6s-0.4,-9.8 -3.2,-12.6z" class="st0" />
                <path id="svg_10" d="m497.699988,31.500012c-2.1,-2.1 -3.7,-3.1 -6.9,-3.1c-5,0 -9.2,4 -9.2,10.3l0,27.9l-9.2,0l0,-46l9.1,0l0,5c2.4,-3.3 7.1,-5.5 12.2,-5.5c4.4,0 7.8,1.2 11,4.4l-7,7z" class="st0" />
            </g>
            <g id="svg_11">
                <path id="svg_12" d="m236.399988,147.400012l-13.6,-27.2l-12.2,0l0,27.2l-9.8,0l0,-64.6l25,0c12.2,0 20,7.9 20,18.9c0,9.2 -5.6,15.1 -12.9,17.1l14.9,28.6l-11.4,0zm-11.4,-55.7l-14.5,0l0,20.2l14.5,0c6.5,0 11,-3.7 11,-10.1s-4.4,-10.1 -11,-10.1z" class="st0" />
                <path id="svg_13" d="m286.599988,142.500012c-3,3.1 -7.5,5.4 -13.8,5.4c-6.3,0 -10.7,-2.4 -13.7,-5.4c-4.4,-4.5 -5.4,-10.3 -5.4,-18.1c0,-7.7 1.1,-13.5 5.4,-18c3,-3.1 7.4,-5.4 13.7,-5.4c6.3,0 10.8,2.4 13.8,5.4c4.4,4.5 5.4,10.3 5.4,18c0.1,7.8 -1,13.6 -5.4,18.1zm-7,-30.7c-1.7,-1.7 -4.1,-2.6 -6.8,-2.6c-2.7,0 -5,0.9 -6.7,2.6c-2.8,2.8 -3.2,7.6 -3.2,12.6s0.4,9.8 3.2,12.6c1.7,1.7 4,2.7 6.7,2.7c2.7,0 5.1,-1 6.8,-2.7c2.8,-2.8 3.2,-7.6 3.2,-12.6s-0.4,-9.8 -3.2,-12.6z" class="st0" />
                <path id="svg_14" d="m357.399988,147.400012l0,-28c0,-7.2 -4.1,-10.2 -9.3,-10.2c-5,0 -9.5,3.2 -9.5,9.8l0,28.5l-9.3,0l0,-28c0,-7.2 -4.1,-10.2 -9.2,-10.2c-5.1,0 -9.5,3.2 -9.5,10.2l0,28l-9.3,0l0,-46l9.1,0l0,4.6c3.1,-3.4 7.6,-5.2 12.2,-5.2c5.7,0 10.2,2.3 13.1,6.7c3.7,-4.5 8.3,-6.7 14.4,-6.7c4.7,0 8.9,1.5 11.6,4.2c3.5,3.4 4.9,7.8 4.9,13l0,29.4l-9.2,-0.1l0,0z" class="st0" />
                <path id="svg_15" d="m404.499988,147.400012l0,-4.2c-3.4,3.4 -6.5,4.7 -12.2,4.7c-5.7,0 -9.5,-1.4 -12.3,-4.2c-2.4,-2.4 -3.6,-6 -3.6,-9.9c0,-7.7 5.4,-13.2 15.9,-13.2l12,0l0,-3.3c0,-5.8 -2.9,-8.6 -10.1,-8.6c-5.1,0 -7.5,1.2 -10.1,4.4l-6.1,-5.7c4.4,-5.1 8.9,-6.6 16.5,-6.6c12.6,0 19,5.4 19,15.8l0,30.7l-9,0.1l0,0zm-0.2,-20.3l-10.8,0c-5.4,0 -8.3,2.4 -8.3,6.6s2.6,6.5 8.4,6.5c3.5,0 6.2,-0.3 8.6,-2.6c1.4,-1.4 2,-3.5 2,-6.8l0.1,-3.7l0,0z" class="st0" />
                <path id="svg_16" d="m452.699988,147.400012l0,-28c0,-7.2 -4.1,-10.2 -9.2,-10.2c-5.1,0 -9.5,3.2 -9.5,10.2l0,28l-9.3,0l0,-46l9.1,0l0,4.6c3.2,-3.4 7.6,-5.2 12.2,-5.2c4.7,0 8.6,1.5 11.3,4.2c3.5,3.4 4.6,7.8 4.6,13l0,29.4l-9.2,0l0,0z" class="st0" />
                <rect id="svg_17" height="9.8" width="9.8" class="st0" y="79.600012" x="472.699988" />
                <rect id="svg_18" height="46" width="9.2" class="st0" y="101.500012" x="472.999988" />
                <path id="svg_19" d="m519.499988,147.400012l0,-4.2c-3.4,3.4 -6.5,4.7 -12.2,4.7c-5.7,0 -9.5,-1.4 -12.3,-4.2c-2.4,-2.4 -3.6,-6 -3.6,-9.9c0,-7.7 5.3,-13.2 15.9,-13.2l12,0l0,-3.3c0,-5.8 -2.9,-8.6 -10.1,-8.6c-5.1,0 -7.5,1.2 -10.1,4.4l-6.1,-5.7c4.4,-5.1 8.9,-6.6 16.5,-6.6c12.6,0 19,5.4 19,15.8l0,30.7l-9,0.1l0,0zm-0.2,-20.3l-10.8,0c-5.4,0 -8.3,2.4 -8.3,6.6s2.6,6.5 8.4,6.5c3.5,0 6.2,-0.3 8.6,-2.6c1.4,-1.4 2,-3.5 2,-6.8l0.1,-3.7l0,0z" class="st0" />
            </g>
            <polygon id="svg_20" points="168.5,74.30001831054688 126.5999755859375,4.5 91.39996337890625,0 91.29998779296875,0 90.89996337890625,70.80001831054688 " class="st1" />
            <polygon id="svg_21" points="90.89996337890625,70.80001831054688 90.5,146.80001831054688 130.39996337890625,143.9000244140625 168.5999755859375,74.70001220703125 168.5,74.30001831054688 " class="st2" />
            <polygon id="svg_22" points="90.89996337890625,70.80001831054688 91.29998779296875,0 54.39996337890625,4.5 11.79998779296875,74.20001220703125 " class="st2" />
            <polygon id="svg_23" points="11.79998779296875,74.20001220703125 11.5999755859375,74.70001220703125 50.70001220703125,143.9000244140625 90.39996337890625,146.80001831054688 90.5,146.80001831054688 90.89996337890625,70.80001831054688 " class="st3" />
            <g id="svg_24">
                <polygon id="svg_25" points="42.79998779296875,5.9000244140625 2,75.30001831054688 40,143.20001220703125 59.79998779296875,144.60000610351562 20.899993896484375,73.80001831054688 63.70001220703125,3.300018310546875 " class="st0" />
                <polygon id="svg_26" points="138.79998779296875,6.5 117.5999755859375,3.300018310546875 159.0999755859375,73.9000244140625 121.79998779296875,144.70001220703125 141.5999755859375,143.20001220703125 177.70001220703125,74 " class="st0" />
            </g>
        </g>
   </g>
</svg>